<svg xmlns="http://www.w3.org/2000/svg" xml:space="preserve" fill-rule="evenodd" stroke-linejoin="round" stroke-miterlimit="2" clip-rule="evenodd" viewBox="0 0 372 425">
  <g fill-rule="nonzero">
    <path fill="#ed8936" d="M185.815 0c-.09 20.07-22.373 41.015-33.972 67.722a87.955 87.955 0 0 1 9.496 5.867c4.267-10.32 10.55-19.984 16.718-29.462 2.636-4.051 5.232-8.042 7.615-12.013 2.345 3.993 4.906 8.005 7.507 12.08 10.627 16.658 21.616 33.883 21.527 54.098-.076 16.818-9.192 32.447-18.288 43.875a155.05 155.05 0 0 1 .718 16.015c11.957-12.655 28.502-34.692 28.615-59.841.188-42.247-40.057-71.272-39.936-98.341"/>
    <path fill="#c53030" d="M88.334 71.922c4.483 1.164 9.13 2.191 13.851 3.234 19.293 4.264 39.244 8.673 53.474 23.031 17.09 17.243 19.112 46.06 18.914 60.763-.402.002-.814.002-1.236 0-15.022-.067-42.708-2.686-59.343-19.47-14.23-14.358-18.46-34.347-22.55-53.68-1-4.728-1.986-9.385-3.11-13.878m-22.606-22.81c19.055 19.227 10.682 68.136 40.421 98.143 19.43 19.602 50.355 22.666 67.138 22.74 7.179.033 11.768-.482 11.768-.482s6.187-51.115-21.551-79.102c-29.739-30.007-78.721-22.072-97.776-41.299Z"/>
    <path fill="#00b4e2" d="M233.548 74.052a87.697 87.697 0 0 1 2.566 10.862c10.316-4.28 21.591-6.67 32.656-9.011 4.728-1 9.385-1.986 13.878-3.11-1.165 4.482-2.192 9.13-3.234 13.85-4.264 19.293-8.673 39.244-23.03 53.474-11.96 11.852-29.46 16.46-43.969 18.108a154.902 154.902 0 0 1-10.804 11.817c17.402-.493 44.682-4.374 62.548-22.08 30.007-29.738 22.072-78.72 41.298-97.775-14.254 14.127-44.822 13.182-71.909 23.865Z"/>
    <g fill="#334155">
      <path d="M115.179 192.955c0-.699-.117-1.397-.117-1.98l-.233-1.048v-.582c-.116-.117-.116-.233-.116-.466-.582-2.679-1.747-5.357-3.144-7.686-6.056-9.317-17.236-13.51-27.252-13.16-5.008.116-9.899 1.164-14.44 2.562-2.33.699-4.543 1.397-6.755 2.33-2.213.814-4.31 1.746-6.522 2.678l-3.145 1.514-3.144 1.747-.815.349c-.233.116-.466.35-.699.466l-1.63.815-3.028 1.863c-3.96 2.562-7.803 5.241-11.413 8.152-3.727 3.028-7.104 6.173-10.365 9.55-3.261 3.377-6.405 6.988-9.2 10.83-2.795 3.727-5.358 7.687-7.57 11.88-2.213 4.309-3.96 8.85-4.892 13.742a39.441 39.441 0 0 0-.698 7.453c0 2.446.233 4.891.815 7.454.582 2.445 1.514 4.774 2.678 7.104 1.165 2.212 2.679 4.309 4.426 6.172 1.63 1.863 3.61 3.494 5.59 4.891 1.98 1.398 4.076 2.562 6.172 3.727 1.048.466 2.097.932 3.261 1.514.466.233 1.048.466 1.63.699l1.515.698c1.164.466 2.212.816 3.377 1.281l1.63.583.816.233.815.349c8.734 3.028 17.585 5.124 25.97 8.269 1.048.349 2.096.815 3.145 1.164.465.233.931.466 1.513.699l1.514.699c1.98.931 3.96 1.863 5.707 3.028 1.863 1.164 3.61 2.329 5.24 3.726a27.28 27.28 0 0 1 4.31 4.659c1.164 1.63 2.212 3.493 2.911 5.473.699 1.864 1.165 3.96 1.398 6.056.465 4.193 0 8.502-1.049 12.694-.582 2.213-1.28 4.193-2.096 6.289-.466.932-.931 1.98-1.397 3.028l-.7 1.397-.348.816-.466.698c-2.097 3.844-4.659 7.57-7.57 10.831a45.179 45.179 0 0 1-4.542 4.891 88.612 88.612 0 0 1-5.008 4.31c-1.747 1.28-3.61 2.445-5.473 3.377-1.048.466-1.98.931-3.028 1.28-.932.35-1.98.7-3.028.932-1.048.233-2.097.35-3.145.35-1.048.116-2.096 0-3.144-.117-.466 0-.932-.116-1.514-.233l-.699-.116c-.35-.116-.582-.116-.815-.233-.932-.35-1.863-.699-2.795-1.165a22.216 22.216 0 0 1-2.446-1.746 13.098 13.098 0 0 1-2.096-2.33c-.582-.815-1.048-1.746-1.514-2.678-.116-.233-.233-.466-.233-.815l-.233-.35c0-.116 0-.233-.116-.35 0-.232-.117-.465-.233-.698l-.117-.815c-.232-1.048-.465-2.096-.582-3.144V345.4c.117-.582.117-1.048.233-1.63.117-.466.117-1.048.233-1.63.233-1.049.582-2.097.932-3.029 1.397-4.192 3.726-8.035 6.405-11.53.466-.581.35-1.397-.233-1.862-.466-.466-1.281-.35-1.747.232l-2.096 2.795a42.493 42.493 0 0 0-1.863 3.028 29.767 29.767 0 0 0-3.145 6.406c-.35 1.048-.699 2.212-1.048 3.377l-.35 1.747c0 .582-.116 1.164-.232 1.863v3.61c.116 1.165.233 2.446.466 3.61l.232.932c.117.233.233.583.233.816.117.116.117.349.233.465l.117.466c.116.233.233.583.35.815.465 1.165 1.047 2.213 1.746 3.261.699 1.048 1.514 1.98 2.446 2.912.931.815 1.98 1.514 3.028 2.212 1.164.583 2.329 1.049 3.493 1.514.233 0 .583.117.816.233l.931.233c.583.117 1.281.233 1.864.35 1.164.116 2.445.233 3.726.116 1.165 0 2.446-.116 3.61-.35a19.918 19.918 0 0 0 3.494-1.047c1.165-.35 2.33-.816 3.378-1.398 2.212-1.048 4.192-2.213 6.055-3.61 1.98-1.398 3.727-2.912 5.474-4.542 1.747-1.514 3.377-3.26 4.891-5.008 3.145-3.494 5.823-7.337 8.152-11.413l.466-.815.466-.699.35-.815.465-.815c.466-1.048 1.048-2.096 1.514-3.145.932-2.212 1.63-4.425 2.33-6.754a69.654 69.654 0 0 0 1.397-7.104 37.37 37.37 0 0 0 0-7.22c-.116-2.446-.699-4.892-1.514-7.221-.815-2.33-1.98-4.542-3.494-6.638-1.397-1.98-3.028-3.843-4.891-5.357a36.511 36.511 0 0 0-5.823-4.426c-1.98-1.28-4.076-2.33-6.172-3.377l-1.63-.699c-.467-.233-1.049-.466-1.631-.699a91.414 91.414 0 0 0-3.261-1.397c-8.618-3.378-17.469-5.707-25.97-8.735l-.7-.233-.814-.349-1.63-.582c-.932-.35-1.98-.815-3.029-1.165l-1.514-.699c-.466-.232-1.048-.465-1.514-.698-.931-.466-1.98-.932-2.911-1.514-3.843-1.98-7.337-4.426-10.132-7.454a19.949 19.949 0 0 1-3.377-5.007 19.53 19.53 0 0 1-1.98-5.707 26.854 26.854 0 0 1-.699-6.056c.117-2.096.233-4.192.699-6.289.815-4.076 2.445-8.035 4.425-11.878 2.097-3.727 4.542-7.454 7.22-10.831 10.831-14.092 25.156-25.272 41.227-32.376 1.98-.931 4.076-1.747 6.056-2.562 2.096-.699 4.193-1.397 6.289-1.98 4.076-1.164 8.269-1.98 12.345-1.98 2.096 0 4.076.117 6.055.583 1.864.35 3.727.931 5.474 1.747a21.862 21.862 0 0 1 4.891 3.144 15.254 15.254 0 0 1 3.494 4.193c.932 1.514 1.63 3.144 1.98 4.89 0 .117.116.234.116.35v.35l.117.698c0 .35 0 .816.116 1.281v1.398l-.116.699v.698c-.466 3.727-1.864 7.57-4.076 10.831l-.815 1.281c-.233.35-.583.699-.932 1.165-.582.815-1.281 1.514-1.98 2.329a63.495 63.495 0 0 1-3.96 3.96c-.349-.466-.815-.816-1.514-1.165-2.212-1.048-5.007 0-6.055 2.33-.233.582-.583 1.164-.816 1.863a16.882 16.882 0 0 0-.698 2.212c-.117.466-.233.932-.233 1.63v1.398c.116.583.35 1.398.931 2.33.35.465.816.931 1.398 1.28.233.233.466.35.699.466.349.117.582.233.815.233.233.117.466.117.699.117.233.116.349.116.582.116h.466c.233 0 .35 0 .466-.116.233 0 .465 0 .698-.117h.233l.35-.116c.116 0 .233-.117.349-.117l.466-.233c.466-.233.815-.349 1.164-.582.35-.233.7-.466.932-.582a22.702 22.702 0 0 0 1.747-1.281l2.795-2.446c1.863-1.63 3.494-3.377 5.124-5.24.815-.816 1.514-1.747 2.33-2.796.349-.465.815-1.048 1.164-1.514.35-.582.699-1.164 1.048-1.63 1.398-2.213 2.562-4.542 3.377-6.988a28.39 28.39 0 0 0 1.747-7.686c.117-.35.117-.699.117-1.048v-.932c.116-.698 0-1.397 0-2.096Zm-25.272 26.553c0-.117 0 0 .117-.117 0 0-.117 0-.117.117Z"/>
      <path d="M135.443 275.175c-.35-.233-.932 0-1.048.35h-.117c-1.397 2.678-3.377 5.124-5.357 7.337-1.048 1.164-2.213 2.212-3.26 3.26-1.165.932-2.33 1.98-3.611 2.795-1.165.932-2.446 1.63-3.727 2.33-1.28.698-2.678 1.164-3.96 1.28 0 .117-.116.117-.232.117h-.816c-.349 0-.698.117-1.048 0-.698.117-1.397 0-1.98-.116-.698-.117-1.28-.233-1.98-.466-.582-.233-1.164-.466-1.63-.815-1.164-.583-2.096-1.514-2.911-2.562a7.425 7.425 0 0 1-.932-1.63 5.49 5.49 0 0 1-.699-1.748 14.359 14.359 0 0 1-.349-5.473c.35.233.815.465 1.281.465.582.117 1.165 0 1.63-.116.117 0 .233 0 .35-.116.116 0 .233 0 .35-.117.349-.116.582-.233.814-.466.466-.35.816-.815 1.049-1.164.232-.466.465-.932.582-1.514.233-.466.233-1.048.233-1.63 0-.467-.117-1.165-.35-1.748-.116-.349-.349-.582-.582-.931-.233-.233-.582-.466-.815-.7-.699-.348-1.398-.581-1.98-.581-.699-.117-1.281 0-1.863.116-.35.117-.583.233-.932.35-.116.116-.233.116-.466.232-.116.117-.233.233-.35.233-.465.35-.93.816-1.28 1.165-.699.932-1.165 1.747-1.514 2.678-.699 1.63-1.048 3.494-1.165 5.241 0 .932 0 1.863.117 2.795 0 .233.116.466.116.699 0 .233.117.466.117.699.116.465.233.815.349 1.28.35.932.699 1.748 1.165 2.563.465.815.931 1.63 1.514 2.329 1.28 1.397 2.678 2.679 4.309 3.494.815.466 1.746.815 2.678 1.048.815.233 1.747.466 2.679.466.931.116 1.747.116 2.678.116.35-.116.815-.116 1.281-.116.233-.117.35-.117.583-.117l.349-.116h.35c1.863-.466 3.377-1.165 4.89-1.98 1.515-.815 2.796-1.863 4.077-2.911 2.562-2.097 4.775-4.426 6.754-6.988 1.048-1.281 1.98-2.562 2.795-3.96.816-1.397 1.63-2.795 2.213-4.309.233-.349 0-.815-.35-1.048Zm-32.492.815c.116-.232.233-.349.349-.465l.116-.117v-.116c.117 0 .117 0 .233-.117.117 0 .35-.116.466-.116h.35l.116.116c.116.117.233.233.35.466.116.35.116 1.048 0 1.514 0 .233-.117.466-.35.699l-.233.233c-.116 0-.233.116-.233.116-.35.117-.582.117-.815.117-.116 0-.35-.117-.466-.233-.233-.233-.35-.466-.582-.815.233-.466.466-.932.699-1.282Z"/>
      <path d="M166.071 276.573c-.116-.35-.465-.583-.931-.466a5.338 5.338 0 0 1-2.33-.117c-.931-.232-1.746-.582-2.562-.931-1.746-.699-3.377-1.63-5.357-2.33-.465-.116-.931-.349-1.514-.349-.465-.116-.931-.116-1.397-.233a15.25 15.25 0 0 0-3.261 0c-.582.117-1.048.35-1.63.583-.583.233-1.049.582-1.514.815-.816.699-1.63 1.514-2.213 2.329-2.213 2.679-3.727 5.706-4.891 8.85.116-1.862.233-3.726.349-5.706.35-3.144.699-6.405 1.048-9.666l.35-2.329.349-2.446c.116-.931.233-1.746.466-2.562.116-.116.233-.349.35-.582.116-.233.348-.466.465-.932v-1.514c0-.116-.117-.349-.233-.582 0-.233-.116-.466-.233-.699-.116-.233-.35-.349-.466-.582l-.466-.466c-.116-.116-.349-.233-.465-.35-.583-.349-1.049-.465-1.398-.581-1.747-.35-3.377.815-3.96 2.562-.465 1.863-.698 3.726-.815 5.473-.116.815-.233 1.747-.233 2.562l-.116 2.446c-.233 3.377-.35 6.638-.466 10.015 0 3.261 0 6.639.116 10.016.117.815.117 1.63.233 2.562 0 .815.117 1.63.117 2.562.233 1.747.582 3.61 1.397 5.474v.116c.117.35.35.699.7.932 1.047.699 2.445.466 3.144-.466.465-.699.815-1.397.931-2.096.233-.583.35-1.165.35-1.747l.233-1.398c0-.465.116-.931.232-1.397a47.14 47.14 0 0 1 1.049-5.59c.465-1.747.931-3.494 1.63-5.24.233-.35.35-.816.582-1.165l.35-.7.233-.581c.232-.35.465-.816.698-1.165.233-.35.466-.815.7-1.165 1.047-1.397 2.212-2.562 3.61-2.911.698-.117 1.513-.233 2.445-.117.466 0 .932 0 1.397.117.35 0 .816.116 1.165.116 1.63.466 3.377 1.281 5.24 1.98.932.35 1.864.582 2.912.815.932.117 2.096.233 3.145-.233.349-.116.582-.465.465-.931Zm41.693-1.398c-.35-.233-.932 0-1.048.35h-.117c-1.397 2.678-3.377 5.124-5.357 7.337-1.048 1.164-2.213 2.212-3.26 3.26-1.165.932-2.33 1.98-3.611 2.795-1.165.932-2.446 1.63-3.727 2.33-1.28.698-2.678 1.164-3.96 1.28 0 .117-.116.117-.232.117h-.815c-.35 0-.7.117-1.049 0-.698.117-1.397 0-1.98-.116-.698-.117-1.28-.233-1.98-.466-.581-.233-1.164-.466-1.63-.815-1.164-.583-2.096-1.514-2.911-2.562a7.425 7.425 0 0 1-.932-1.63 5.49 5.49 0 0 1-.699-1.748 14.359 14.359 0 0 1-.349-5.473c.35.233.815.465 1.281.465.582.117 1.165 0 1.63-.116.117 0 .234 0 .35-.116.116 0 .233 0 .35-.117.349-.116.582-.233.815-.466.465-.35.815-.815 1.048-1.164.233-.466.466-.932.582-1.514.233-.466.233-1.048.233-1.63 0-.467-.117-1.165-.35-1.748-.116-.349-.349-.582-.582-.931-.233-.233-.582-.466-.815-.7-.699-.348-1.397-.581-1.98-.581-.699-.117-1.28 0-1.863.116-.35.117-.582.233-.932.35-.116.116-.233.116-.466.232-.116.117-.233.233-.349.233-.466.35-.932.816-1.281 1.165-.699.932-1.165 1.747-1.514 2.678-.699 1.63-1.048 3.494-1.165 5.241 0 .932 0 1.863.117 2.795 0 .233.116.466.116.699 0 .233.117.466.117.699.116.465.233.815.35 1.28.349.932.698 1.748 1.164 2.563.466.815.931 1.63 1.514 2.329 1.28 1.397 2.678 2.679 4.309 3.494.815.466 1.747.815 2.678 1.048.815.233 1.747.466 2.679.466.931.116 1.747.116 2.678.116.35-.116.816-.116 1.281-.116.233-.117.35-.117.583-.117l.35-.116h.348c1.864-.466 3.378-1.165 4.892-1.98 1.514-.815 2.795-1.863 4.076-2.911 2.562-2.097 4.775-4.426 6.754-6.988 1.049-1.281 1.98-2.562 2.795-3.96.816-1.397 1.63-2.795 2.213-4.309.233-.349 0-.815-.35-1.048Zm-32.492.815c.116-.232.233-.349.35-.465l.116-.117v-.116c.116 0 .116 0 .232-.117.117 0 .35-.116.466-.116h.35l.116.116c.117.117.233.233.35.466.116.35.116 1.048 0 1.514 0 .233-.117.466-.35.699l-.233.233c-.116 0-.233.116-.233.116-.35.117-.582.117-.815.117-.116 0-.35-.117-.466-.233-.233-.233-.35-.466-.582-.815.233-.466.466-.932.699-1.282Z"/>
      <path d="M263.198 275.525a1.178 1.178 0 0 0-1.514.465c-.582.816-1.164 1.747-1.747 2.679-.582.815-1.164 1.747-1.746 2.562-1.281 1.747-2.562 3.377-3.96 4.891-1.398 1.63-2.795 3.028-4.425 4.193-1.63 1.048-3.494 1.863-5.125 1.747-1.747-.117-3.26-1.165-4.658-2.562-1.281-1.398-2.446-3.145-3.61-4.892-1.165-1.746-2.213-3.61-3.494-5.473-.582-.932-1.281-1.863-2.096-2.679a10.727 10.727 0 0 0-3.028-2.445c-.583-.233-1.281-.583-1.98-.583-.699-.116-1.398-.116-2.096-.116-1.398.233-2.679.815-3.727 1.514-1.165.815-1.98 1.63-2.795 2.562l-2.096 2.795c-1.281 1.863-2.33 3.727-3.494 5.474-.117.232-.233.465-.35.582v-1.398c0-2.096.117-4.076.35-6.172.233-2.096.582-4.076.932-6.056v-.35h.116c.35-.465.466-.582.582-.814.117-.233.233-.466.233-.583.233-.35.35-.698.466-.931.233-.7.35-1.281.466-1.98.116-.35.116-.699.233-1.048 0-.35 0-.816-.117-1.398-.116-.233-.116-.582-.232-.932-.233-.232-.35-.698-.7-1.048-.349-.466-.814-.931-1.397-1.164-.582-.35-1.28-.583-1.863-.583h-.233c-1.747 0-3.144 1.281-3.494 3.028l-.233 1.63c-.116.583-.233 1.165-.233 1.748-.233 1.048-.349 2.212-.465 3.377a65.6 65.6 0 0 0-.35 6.755c0 2.212 0 4.542.233 6.754.117 1.165.117 2.213.35 3.378v.815l.116.233v.35c0 .116.116.348.116.581.117.466.233.932.583 1.398.116.233.35.582.582.815.233.35.582.582.932.815.465.233.931.466 1.28.466.467.117.932.117 1.398 0 .815-.233 1.398-.582 1.747-.932.35-.349.699-.698.815-1.048.233-.233.466-.465.583-.698a28.34 28.34 0 0 0 1.746-3.028c1.049-1.98 1.98-3.843 3.028-5.59.932-1.747 2.097-3.378 3.494-4.426.582-.466 1.281-.815 1.98-.931.35-.117.699-.117 1.048-.117.35.117.582.117.932.35.699.232 1.397.815 1.98 1.397a19.005 19.005 0 0 1 1.98 2.33c1.28 1.63 2.445 3.376 3.61 5.123 1.28 1.864 2.562 3.61 4.309 5.241a12.538 12.538 0 0 0 2.795 2.096c1.048.583 2.329.932 3.61 1.048a9.49 9.49 0 0 0 3.61-.698c1.048-.466 2.096-1.049 3.028-1.747 1.747-1.281 3.377-2.912 4.775-4.542 2.911-3.261 5.24-6.988 7.57-10.598.35-.582.233-1.281-.35-1.63ZM209.394 288.8h.117c-.117 0-.117.116-.117 0Z"/>
      <path d="M270.302 295.09c-.233-.466-.582-.699-1.048-.583-.35.117-.699.233-.931.117-.233 0-.466-.117-.7-.35-.465-.349-.814-1.048-1.047-1.746-.583-1.514-.932-3.145-1.048-4.892-.233-1.63-.233-3.377-.233-5.007v-3.96c0-.35.116-.815.116-1.165v-.349c-.116-1.281-1.165-2.213-2.446-2.096-1.28.116-2.212 1.164-2.096 2.329v.116c0 .466.117.932.117 1.281 0 .466.116.932.116 1.398.117.932.233 1.747.35 2.679.349 1.746.698 3.61 1.048 5.357.233.931.465 1.747.815 2.678.35.815.699 1.747 1.164 2.562.233.466.466.932.816 1.281.349.35.698.816 1.164 1.165.583.233 1.165.466 1.747.466.582 0 1.165-.117 1.63-.35.35-.232.583-.582.466-.931Zm-7.686-24.806c.233.35.466.815.815 1.048.466.233.932.35 1.398.117.466-.117.815-.35 1.048-.816a.906.906 0 0 0 .233-.931c.116-.233.233-.466.233-.7 0-.465-.233-.93-.583-1.28-.349-.233-.815-.466-1.28-.466-.466 0-.932.116-1.282.466-.116.233-.233.35-.349.582a.89.89 0 0 0-.233.582c0 .233-.116.466-.116.7 0 .116.116.349.116.582v.116Z"/>
      <path d="M346.816 215.082c-10.248-1.164-20.497-2.096-30.862-2.911a1331.954 1331.954 0 0 0-30.861-1.747h-1.165c.35-4.658.699-9.317 1.165-13.975l.466-8.152a1.2 1.2 0 0 0 .582-.699c0-.233.116-.35.116-.466 0-.116 0-.233.117-.35 0-.232 0-.349.116-.582 0-.465.117-.815.117-1.164.116-.815.233-1.514.233-2.33.116-.815.116-1.513.116-2.328 0-.466 0-.816-.116-1.282 0-.232 0-.465-.117-.815 0-.116 0-.35-.116-.582l-.117-.117c0-.116-.116-.116-.116-.232-.117-.117-.233-.35-.466-.583-.117-.116-.233-.233-.466-.35-.932-.348-1.98 0-2.446.933l-.116.349c-1.398 2.911-2.213 6.056-2.795 9.084-.699 3.144-1.048 6.172-1.281 9.2-.35 4.775-.582 9.55-.932 14.208-7.919-.233-15.838-.35-23.757-.116-5.241.116-10.365.465-15.606.931-2.562.233-5.124.583-7.686.932l-.583.116-.465.117c-.35 0-.7.116-1.049.233a8.112 8.112 0 0 0-2.212.699c-.699.349-1.514.815-2.213 1.513a.25.25 0 0 0-.233.233l-.35.35c-.116.116-.232.35-.349.582l-.349.699c-.117.35-.233.582-.233.815l-.116.117c-.233 1.164.465 2.329 1.63 2.562a2.33 2.33 0 0 0 2.679-1.63v-.117c0-.233.116-.35.349-.583.233-.232.466-.465.932-.698.465-.117.931-.35 1.514-.466.233-.117.465-.117.815-.233h.35l.465-.117c2.562-.349 5.008-.698 7.57-1.048 5.008-.582 10.132-.931 15.256-1.164 7.803-.233 15.606-.233 23.408-.117v.466c-.35 6.056-.698 12.228-.931 18.284-.35 6.056-.466 12.228-.7 18.284l-.232 9.2c-.117 3.028-.117 6.056-.233 9.084v9.2c-.116 3.029 0 6.057 0 9.2.116 6.057.466 12.23 1.398 18.401.582 3.145 1.28 6.173 2.445 9.2.582 1.515 1.281 3.029 2.213 4.31.932 1.397 1.98 2.678 3.26 3.843.467.466 1.282.35 1.864-.117.466-.582.466-1.397 0-1.863h-.116c-.932-1.048-1.747-2.096-2.446-3.377-.699-1.165-1.165-2.562-1.63-3.96-.932-2.678-1.398-5.59-1.747-8.501-.35-2.912-.583-5.94-.583-8.968a115.57 115.57 0 0 1 0-8.967c.117-6.056.35-12.112.583-18.284l.35-9.084.465-9.084c.233-6.056.582-12.112.932-18.167.349-6.056.698-12.112 1.164-18.168v-.815h1.281c10.249.233 20.497.698 30.862 1.397a664.533 664.533 0 0 1 30.629 2.446c.815 0 1.397-.466 1.514-1.281.116-.699-.466-1.281-1.165-1.398Z"/>
      <path d="M370.923 275.408c-.35-.466-1.048-.466-1.514-.116-5.823 5.24-11.646 10.365-17.352 15.838-.466-1.514-.932-3.028-1.398-4.425-.233-.583-.466-1.165-.699-1.63l-.233-.816-.349-.815c-.233-.466-.466-1.048-.699-1.514-.233-.582-.582-1.048-.815-1.63-1.164-1.98-2.562-4.077-4.425-5.707-.932-.932-2.097-1.63-3.261-2.213-.582-.233-1.281-.466-1.864-.582-.698-.233-1.28-.35-1.98-.35-1.28-.116-2.561 0-3.842.35-1.282.35-2.33.815-3.494 1.281a28.75 28.75 0 0 0-5.59 4.076c-1.747 1.398-3.378 3.028-4.892 4.542a67.029 67.029 0 0 1-9.899 8.152c-.815.582-1.746 1.165-2.678 1.747-.35.233-.815.582-1.281.815-.466.233-.932.466-1.281.699-.815.35-1.63.582-2.213.582-.35 0-.582 0-.815-.116-.35 0-.582-.117-.815-.35-.466-.233-.816-.815-1.281-1.514a11.912 11.912 0 0 1-.932-2.445c-.117-.35-.233-.815-.233-1.281-.116-.233-.116-.466-.116-.699v-.35l-.117-.349c-.116-1.048-.116-1.98-.116-3.028a46.647 46.647 0 0 1 0-5.706c.233-.117.465-.35.582-.582.116-.233.233-.466.233-.7.116-.116.116-.349.233-.465 0-.35.116-.582.116-.932.117-.466.233-1.048.233-1.63 0-.582.117-1.048 0-1.747 0-.233 0-.582-.116-1.048 0-.233-.117-.466-.35-.932l-.35-.35c0-.116-.116-.116-.232-.232-.116-.117-.116-.117-.35-.233a2.194 2.194 0 0 0-.931-.233h-.35c-.116.116-.232.116-.349.116-.466.233-.932.583-1.048 1.049l-.116.233c-.233.465-.466 1.048-.7 1.63-.232.466-.349 1.048-.581 1.63-.35 1.048-.583 2.213-.816 3.378-.35 2.212-.582 4.542-.582 6.87v1.748c.116.582.116 1.164.233 1.747v.349l.116.466c0 .35 0 .699.117.931.116.7.233 1.281.466 1.864.35 1.28.815 2.445 1.63 3.61.35.582.699 1.165 1.281 1.747.466.582 1.165 1.048 1.864 1.397.698.466 1.397.7 2.212.932.815.117 1.63.117 2.446 0 .699 0 1.514-.233 2.096-.466.699-.35 1.281-.582 1.747-.931.582-.35 1.048-.7 1.514-1.049.466-.349.932-.582 1.397-.931.932-.699 1.747-1.398 2.563-2.097 3.493-2.795 6.754-5.822 9.899-8.967 1.63-1.514 3.144-2.911 4.774-4.309.816-.699 1.63-1.28 2.446-1.863.815-.582 1.747-1.048 2.562-1.514 1.747-.815 3.61-1.165 5.357-.932.35 0 .816.117 1.281.233.35.117.816.35 1.165.466.699.466 1.397.932 2.096 1.63 1.281 1.281 2.213 2.912 3.145 4.775.116.466.349.932.582 1.398.116.466.35.931.582 1.397l.233.699.233.815c.117.466.35.932.466 1.398a83.72 83.72 0 0 1 1.747 7.337c-.699.698-1.398 1.28-2.096 1.98l-2.33 2.329-2.212 2.445c-2.912 3.261-5.823 6.522-8.618 9.9-2.795 3.377-5.474 6.987-8.036 10.48-1.281 1.747-2.562 3.61-3.843 5.358-1.165 1.863-2.446 3.726-3.61 5.59-4.659 7.337-8.851 15.14-12.578 23.175-3.61 8.036-6.638 16.42-8.734 24.922-1.165 4.31-2.097 8.618-2.679 13.16-.582 4.426-.815 8.968-.35 13.51.117.582.234 1.164.234 1.746l.349 1.747c.233 1.165.466 2.33.932 3.494.465 1.165.931 2.33 1.63 3.494.699 1.048 1.514 2.096 2.679 3.028 1.048.931 2.329 1.63 3.726 2.096 1.398.35 2.795.466 4.193.35a13.28 13.28 0 0 0 3.843-.932c1.165-.466 2.33-.932 3.377-1.63 1.048-.583 1.98-1.282 2.912-1.98.931-.7 1.863-1.514 2.678-2.213 1.63-1.514 3.261-3.145 4.775-4.892 3.028-3.377 5.707-6.987 8.152-10.83 2.33-3.727 4.426-7.687 6.405-11.646 1.98-3.96 3.844-7.92 5.474-12.112 1.63-4.076 3.028-8.268 4.31-12.577 1.28-4.193 2.445-8.502 3.26-12.811.932-4.309 1.747-8.734 2.33-13.16.581-4.309.93-8.734 1.164-13.16.116-4.425.116-8.85 0-13.276-.117-2.213-.233-4.426-.466-6.638l-.117-1.747-.116-1.63c-.117-1.049-.233-2.213-.466-3.261-.233-1.747-.466-3.494-.815-5.125 5.823-6.055 11.995-11.878 18.051-17.934.35-.35.35-1.048 0-1.398Zm-21.778 50.776c-.35 8.502-1.514 17.003-3.26 25.388-1.748 8.385-4.193 16.538-7.338 24.573-1.514 3.96-3.26 7.92-5.124 11.763-1.863 3.843-3.96 7.57-6.172 11.18-2.213 3.61-4.658 6.987-7.454 10.132-1.397 1.514-2.795 3.028-4.308 4.425-.816.699-1.63 1.398-2.446 1.98-.699.699-1.514 1.165-2.33 1.747-1.63.932-3.377 1.747-5.007 1.863-1.63.117-3.028-.233-4.193-1.28-1.28-.933-2.212-2.446-2.795-4.31-.349-.815-.582-1.747-.815-2.678-.116-.583-.233-1.049-.233-1.514-.116-.466-.233-1.049-.233-1.514-.465-4.076-.349-8.269.233-12.461.466-4.193 1.281-8.386 2.33-12.578 1.98-8.269 4.89-16.42 8.268-24.34 3.494-7.803 7.453-15.49 11.995-22.826a237.91 237.91 0 0 1 14.907-21.08c2.679-3.376 5.474-6.754 8.385-10.015 1.398-1.63 3.028-3.26 4.542-5.007 0 .349.117.582.117.931.232 2.097.465 4.193.582 6.406.233 2.096.35 4.192.466 6.405.116 4.192.116 8.501-.117 12.81Zm3.614-78.821v-9.62h-3.436v-1.958h9.201v1.958h-3.427v9.62h-2.338Zm7.243 0v-11.578h3.499l2.1 7.898 2.078-7.898h3.506v11.578h-2.172v-9.114l-2.298 9.114h-2.251l-2.29-9.114v9.114h-2.172Z"/>
    </g>
  </g>
</svg>
