<svg xmlns="http://www.w3.org/2000/svg" xml:space="preserve" fill-rule="evenodd" stroke-linejoin="round" stroke-miterlimit="2" clip-rule="evenodd" viewBox="0 0 372 425">
  <g fill="#334155" fill-rule="nonzero">
    <path d="M115.2 193.2v-2l-.3-1v-.6l-.1-.5c-.6-2.7-1.8-5.3-3.2-7.7a31.2 31.2 0 0 0-27.2-13.1 66 66 0 0 0-21.2 4.9l-6.6 2.6-3.1 1.6-3.2 1.7-.8.4-.7.4-1.6.8-3 1.9A115.8 115.8 0 0 0 5.6 223 50.9 50.9 0 0 0 0 244.2c0 2.5.2 5 .8 7.5A28.6 28.6 0 0 0 8 265a37.1 37.1 0 0 0 11.8 8.6l3.3 1.5 1.6.7 1.5.7 3.4 1.3 1.6.6.8.2.8.4c8.8 3 17.6 5 26 8.2l3.2 1.2 1.5.7 1.5.7c2 1 4 1.9 5.7 3 1.9 1.2 3.6 2.4 5.3 3.8a22.4 22.4 0 0 1 8.6 16.2c.4 4.1 0 8.5-1 12.7a56.9 56.9 0 0 1-3.6 9.3l-.7 1.4-.3.8-.5.7a58.3 58.3 0 0 1-12.1 15.7 38.5 38.5 0 0 1-10.5 7.7c-1 .5-2 1-3 1.3l-3 1c-1 .2-2.1.3-3.2.3l-3.1-.1-1.6-.3-.7-.1-.8-.2-2.8-1.2-2.4-1.7a13 13 0 0 1-2.1-2.4c-.6-.8-1-1.7-1.5-2.7-.1-.2-.3-.4-.3-.8l-.2-.3-.1-.4-.2-.7-.2-.8-.5-3.1v-3.2c0-.6 0-1 .2-1.6l.2-1.6 1-3a40 40 0 0 1 6.4-11.6c.4-.6.3-1.4-.3-1.9-.4-.4-1.2-.3-1.7.3l-2.1 2.8-1.9 3a29.8 29.8 0 0 0-4.2 9.8c0 .6-.2 1.1-.3 1.7l-.3 1.9v3.6l.5 3.6.2 1c.2.2.3.5.3.8l.2.4.1.5.4.8a17.6 17.6 0 0 0 4.2 6.2l3 2.2 3.5 1.5c.2 0 .6.1.8.3l1 .2 1.8.3c1.2.1 2.5.3 3.7.1a19 19 0 0 0 7.1-1.3l3.4-1.4A51.5 51.5 0 0 0 73.7 351c3.2-3.5 5.9-7.4 8.2-11.4l.5-.8.4-.7.4-.9.5-.8 1.5-3.1a66 66 0 0 0 3.7-13.9 37.4 37.4 0 0 0-1.5-14.4 26 26 0 0 0-3.5-6.7c-1.4-2-3-3.8-4.9-5.3a36.5 36.5 0 0 0-5.8-4.5c-2-1.3-4.1-2.3-6.2-3.3l-1.6-.7-1.7-.7c-1-.5-2-1-3.2-1.4-8.6-3.4-17.5-5.8-26-8.8l-.7-.2-.8-.4-1.7-.5-3-1.2-1.5-.7-1.5-.7-3-1.5a36 36 0 0 1-10-7.5 20 20 0 0 1-3.4-5 26.9 26.9 0 0 1-2-18c.8-4.1 2.4-8.1 4.4-12a106.6 106.6 0 0 1 48.5-43.2l6-2.5 6.3-2c4.1-1.2 8.3-2 12.4-2a26 26 0 0 1 16.4 5.5c1.4 1.1 2.6 2.5 3.5 4.2a15 15 0 0 1 2 4.9l.1.3v.4l.1.7.1 1.3v2.7c-.6 3.8-2 7.6-4.2 10.9l-.8 1.3-1 1.1c-.5.8-1.2 1.5-1.9 2.4a63.5 63.5 0 0 1-4 4 4 4 0 0 0-1.5-1.2c-2.2-1-5 0-6 2.3l-.8 1.9a7 7 0 0 0-.7 2.2c-.2.4-.3.9-.3 1.6v1.4c.1.6.4 1.4 1 2.3.3.5.8 1 1.4 1.3l.7.5.8.2.7.1.6.1h.9c.2 0 .5 0 .7-.2h.2l.4-.1.3-.1.5-.3 1.1-.5 1-.6 1.7-1.3 2.8-2.5a51 51 0 0 0 7.5-8l1.1-1.5 1-1.6a32.2 32.2 0 0 0 5.2-14.7l.1-1v-1c.2-.7 0-1.4 0-2.1ZM90 219.8v-.1Z"/>
    <path d="M135.5 275.5c-.3-.3-1 0-1 .3h-.2a37 37 0 0 1-5.3 7.4l-3.3 3.2c-1.1 1-2.3 2-3.6 2.8-1.2 1-2.4 1.6-3.7 2.3-1.3.7-2.7 1.2-4 1.3l-.2.1h-.8c-.4 0-.7.2-1 0-.8.2-1.5 0-2 0l-2-.5c-.6-.3-1.2-.5-1.7-.9a8.7 8.7 0 0 1-3.8-4.2c-.4-.5-.6-1.1-.7-1.7-.5-1.7-.6-3.6-.4-5.5.4.3.9.5 1.3.5.6.1 1.2 0 1.7-.1l.3-.1.4-.2c.3 0 .5-.2.8-.4.4-.4.8-.8 1-1.2l.6-1.5c.2-.5.2-1 .2-1.6 0-.5 0-1.2-.3-1.8l-.6-1-.8-.6c-.7-.4-1.4-.6-2-.6-.7-.1-1.3 0-1.9.1l-.9.4-.5.2-.3.2-1.3 1.2c-.7 1-1.2 1.7-1.5 2.7a16.3 16.3 0 0 0-1 8v.7l.2.7c0 .5.2.8.3 1.3a17.2 17.2 0 0 0 2.7 4.9c1.3 1.4 2.7 2.7 4.3 3.5.8.5 1.8.8 2.7 1 .8.3 1.7.5 2.7.5l2.7.1 1.2-.1.6-.1.4-.1h.3c1.9-.5 3.4-1.2 5-2a42.6 42.6 0 0 0 13.6-13.9c.8-1.4 1.6-2.8 2.2-4.3.2-.3 0-.8-.4-1Zm-32.5.8c.1-.3.2-.4.4-.5v-.2l.3-.1.5-.2h.3l.1.2c.2 0 .3.2.4.4v1.5c0 .3-.1.5-.4.7l-.2.3h-.2l-.8.2a.9.9 0 0 1-.5-.2l-.6-.8.7-1.3Z"/>
    <path d="M166.2 276.9c-.2-.4-.5-.6-1-.5a6 6 0 0 1-2.3-.1l-2.6-1c-1.7-.7-3.3-1.6-5.3-2.3l-1.5-.3c-.5-.1-1-.1-1.4-.3h-3.3l-1.6.6-1.5.8a30 30 0 0 0-7.1 11.2l.3-5.7 1-9.7.4-2.3.3-2.4.5-2.6.4-.6.4-1v-1.4l-.2-.6-.2-.7-.5-.6-.5-.5-.4-.3c-.6-.4-1-.5-1.4-.6-1.8-.3-3.4.8-4 2.6-.5 1.8-.7 3.7-.8 5.4a19 19 0 0 0-.3 2.6v2.5a288.2 288.2 0 0 0-.4 20l.2 2.6.1 2.5a20 20 0 0 0 1.4 5.5v.1c.1.4.4.7.7 1 1 .6 2.5.4 3.2-.5.4-.7.8-1.4 1-2.1l.3-1.8.2-1.4.2-1.4 1-5.6c.5-1.7 1-3.4 1.7-5.2l.6-1.2.3-.7.3-.5c.2-.4.4-.9.7-1.2l.7-1.2a7 7 0 0 1 3.6-2.9c.7-.1 1.5-.2 2.4-.1l1.4.1 1.2.1c1.6.5 3.4 1.3 5.2 2 1 .4 1.9.6 3 .8.9.1 2 .3 3-.2.4-.1.7-.5.6-1Zm41.7-1.4c-.4-.3-1 0-1 .3h-.2a37 37 0 0 1-5.4 7.4l-3.2 3.2c-1.2 1-2.3 2-3.6 2.8-1.2 1-2.5 1.6-3.8 2.3a9.4 9.4 0 0 1-4 1.3l-.2.1h-.8c-.3 0-.7.2-1 0-.7.2-1.4 0-2 0l-2-.5c-.6-.3-1.1-.5-1.6-.9a8.7 8.7 0 0 1-3.9-4.2l-.7-1.7c-.4-1.7-.5-3.6-.3-5.5.3.3.8.5 1.3.5.6.1 1.1 0 1.6-.1l.4-.1s.2 0 .3-.2c.4 0 .6-.2.8-.4.5-.4.8-.8 1-1.2l.7-1.5c.2-.5.2-1 .2-1.6 0-.5-.1-1.2-.4-1.8 0-.3-.3-.6-.5-1l-.9-.6c-.7-.4-1.4-.6-2-.6-.6-.1-1.2 0-1.8.1l-1 .4-.4.2-.4.2-1.2 1.2c-.7 1-1.2 1.7-1.5 2.7a16.3 16.3 0 0 0-1.1 8l.1.7.1.7.4 1.3a17.2 17.2 0 0 0 2.7 4.9 13.3 13.3 0 0 0 7 4.5 20.6 20.6 0 0 0 5.4.6l1.2-.1.6-.1.3-.1h.4a24 24 0 0 0 4.9-2 42.6 42.6 0 0 0 13.6-13.9c.8-1.4 1.6-2.8 2.2-4.3.3-.3 0-.8-.3-1Zm-32.5.8c0-.3.2-.4.3-.5l.1-.1v-.1l.3-.1.4-.2h.4v.2c.2 0 .3.2.4.4.2.4.2 1 0 1.5 0 .3 0 .5-.3.7l-.2.3h-.3c-.3.2-.6.2-.8.2a.9.9 0 0 1-.5-.2l-.5-.8c.2-.5.4-1 .7-1.3Z"/>
    <path d="M263.3 275.8c-.4-.2-1.1-.1-1.5.5l-1.7 2.7-1.8 2.5a55.7 55.7 0 0 1-8.4 9.1 9 9 0 0 1-5 1.8 8.2 8.2 0 0 1-4.8-2.6 52 52 0 0 1-3.6-4.9l-3.5-5.5a14.4 14.4 0 0 0-5-5.1c-.7-.2-1.4-.6-2-.6l-2.2-.1c-1.4.2-2.6.8-3.7 1.5a15 15 0 0 0-2.8 2.6l-2 2.8c-1.4 1.8-2.4 3.7-3.6 5.5l-.3.5v-1.4a54.9 54.9 0 0 1 1.2-12.2v-.3h.2l.5-.9.3-.5.4-1c.3-.7.4-1.3.5-2l.2-1v-1.4c-.2-.2-.2-.6-.3-1l-.7-1c-.4-.5-.8-1-1.4-1.2-.6-.3-1.3-.5-1.9-.5h-.2a3.6 3.6 0 0 0-3.5 3l-.2 1.6-.3 1.8-.4 3.4a65.6 65.6 0 0 0-.1 13.5c0 1.1 0 2.2.3 3.3v.9l.1.2v.3l.1.6c.2.5.3 1 .6 1.4l.6.8c.2.4.6.6 1 .9l1.2.4h1.4a4 4 0 0 0 2.6-2l.6-.7c.7-1 1.2-2 1.7-3l3-5.6c1-1.7 2.1-3.4 3.5-4.4.6-.5 1.3-.8 2-1h1c.4 0 .6 0 1 .3.7.2 1.4.8 2 1.4a80.8 80.8 0 0 1 5.6 7.5c1.3 1.8 2.5 3.6 4.3 5.2.8.8 1.7 1.5 2.8 2 1 .7 2.3 1 3.6 1.1 1.3 0 2.4-.2 3.6-.7 1-.4 2.1-1 3-1.7a30 30 0 0 0 4.8-4.6c3-3.2 5.3-7 7.6-10.6.3-.5.2-1.2-.4-1.6Zm-53.8 13.3h.1c-.1 0-.1.1-.1 0Z"/>
    <path d="M270.4 295.4c-.2-.5-.5-.7-1-.6-.4.1-.7.2-1 .1-.2 0-.4 0-.6-.3-.5-.4-.9-1-1-1.8a13 13 0 0 1-1.1-4.9c-.3-1.6-.3-3.3-.3-5v-4l.1-1.1v-.4a2.2 2.2 0 0 0-2.4-2 2 2 0 0 0-2 2.3v1.4l.1 1.4.4 2.7 1 5.3.9 2.7 1.1 2.6.8 1.2c.4.4.7.9 1.2 1.2.6.2 1.2.5 1.7.5.6 0 1.2-.1 1.7-.4.3-.2.6-.6.4-1Zm-7.6-24.8c.2.3.4.8.8 1 .4.3.9.4 1.4.1.4 0 .8-.3 1-.8.2-.2.4-.6.2-1 .2-.1.3-.4.3-.6 0-.5-.3-1-.6-1.3-.4-.2-.8-.5-1.3-.5-.4 0-1 .2-1.3.5l-.3.6-.2.6-.2.7.2.6Z"/>
    <path d="M347 215.3a893.3 893.3 0 0 0-61.8-4.6h-1.1l1.1-14 .5-8.2c.2 0 .5-.3.6-.7l.1-.4.1-.4.1-.6.2-1.1.2-2.4.1-2.3-.1-1.3-.1-.8-.1-.6h-.2v-.3l-.5-.6-.5-.3c-1-.4-2 0-2.5.9v.3a64.7 64.7 0 0 0-4 18.3c-.5 4.8-.7 9.6-1 14.2a404.2 404.2 0 0 0-39.5.9l-7.7.9-.5.1-.5.1c-.4 0-.7.1-1 .3a8.1 8.1 0 0 0-4.5 2.2c-.1 0-.2 0-.2.2l-.4.4-.3.5-.4.7-.2.9h-.1c-.2 1.2.5 2.4 1.6 2.6 1.2.3 2.3-.4 2.7-1.6v-.1l.3-.6c.3-.2.5-.5 1-.7l1.5-.5c.2 0 .5 0 .8-.2h.4l.4-.1 7.6-1c5-.6 10.1-1 15.3-1.2 7.8-.3 15.6-.3 23.4-.1v.4l-1 18.3c-.3 6-.4 12.3-.6 18.3l-.3 9.2-.2 9.1v18.4c.1 6 .5 12.3 1.4 18.4.6 3.2 1.3 6.2 2.4 9.2a20.4 20.4 0 0 0 5.5 8.2c.5.5 1.3.3 1.9-.1.4-.6.4-1.4 0-1.9h-.1a17.9 17.9 0 0 1-4.1-7.3c-1-2.7-1.4-5.6-1.8-8.5-.3-3-.6-6-.6-9v-9l.6-18.3.4-9 .4-9.2 1-18.1 1.1-18.2v-.8h1.3a757.9 757.9 0 0 1 61.5 3.8c.9 0 1.4-.4 1.6-1.3 0-.7-.5-1.2-1.2-1.4Z"/>
    <path d="M371.1 275.7c-.3-.5-1-.5-1.5-.1-5.8 5.2-11.7 10.4-17.4 15.8l-1.4-4.4c-.2-.6-.4-1.2-.7-1.6l-.2-.8-.3-.9c-.3-.4-.5-1-.7-1.5l-.9-1.6c-1.1-2-2.5-4-4.4-5.7-1-1-2-1.6-3.2-2.2-.6-.3-1.3-.5-2-.6a10.8 10.8 0 0 0-5.8 0c-1.2.3-2.3.8-3.4 1.3a61 61 0 0 0-10.5 8.6 67 67 0 0 1-10 8.1l-2.6 1.8-1.3.8-1.3.7c-.8.4-1.6.6-2.2.6l-.8-.1a1 1 0 0 1-.8-.4c-.5-.2-.8-.8-1.3-1.5a12 12 0 0 1-1.2-3.7v-1.1l-.2-.3-.1-3V278c.2 0 .5-.3.6-.5l.2-.7.2-.5.2-1 .2-1.6V272l-.1-1c0-.3-.1-.5-.4-1l-.3-.3c0-.2-.1-.2-.3-.3l-.3-.2-1-.2h-.6c-.5.3-1 .7-1 1.1l-.2.3-.7 1.6-.6 1.6-.8 3.4c-.4 2.2-.6 4.5-.6 6.9v1.7l.2 1.8v.3l.2.5v1l.5 1.8c.4 1.3.9 2.4 1.7 3.6.3.6.7 1.2 1.3 1.7.4.6 1.1 1 1.8 1.4.7.5 1.4.7 2.2 1h2.5c.7 0 1.5-.3 2-.5a5 5 0 0 0 1.8-1l1.5-1 1.4-1c1-.6 1.8-1.3 2.6-2 3.5-2.8 6.8-5.8 10-9 1.5-1.5 3-2.9 4.7-4.3l2.4-1.9 2.6-1.5a9.7 9.7 0 0 1 5.4-.9l1.2.2 1.2.5 2.1 1.6a17.9 17.9 0 0 1 3.7 6.2l.6 1.4.2.7.3.8.4 1.4 1.8 7.4-2.1 2-2.3 2.3-2.2 2.4a227.6 227.6 0 0 0-16.7 20.4l-3.9 5.4-3.6 5.6c-4.6 7.3-8.8 15.1-12.5 23.1a147.2 147.2 0 0 0-11.5 38.1 58.2 58.2 0 0 0 0 15.3l.3 1.8c.2 1.1.4 2.3.9 3.5l1.6 3.5a12.9 12.9 0 0 0 6.4 5 12.8 12.8 0 0 0 8-.5l3.5-1.6 2.9-2 2.6-2.2a82.4 82.4 0 0 0 13-15.7 140.9 140.9 0 0 0 11.9-23.8 145.3 145.3 0 0 0 7.5-25.4 163.6 163.6 0 0 0 3.5-39.7 73 73 0 0 0-.4-6.6l-.1-1.7-.2-1.7a67.4 67.4 0 0 0-1.3-8.4c5.9-6 12-11.8 18.1-17.9.4-.4.4-1 0-1.4Zm-21.8 50.8a156.2 156.2 0 0 1-21.9 73 71 71 0 0 1-7.4 10 36.5 36.5 0 0 1-6.8 6.4c-.7.8-1.5 1.3-2.3 1.8a12 12 0 0 1-5 1.9c-1.7.1-3-.2-4.2-1.3a8.2 8.2 0 0 1-2.8-4.3 18 18 0 0 1-.8-2.7l-.3-1.5-.2-1.5c-.5-4-.4-8.3.2-12.5a153.8 153.8 0 0 1 10.6-37 194 194 0 0 1 27-43.8 157 157 0 0 1 8.3-10c1.4-1.7 3-3.3 4.6-5l.1.9c.2 2 .5 4.2.6 6.4a110.4 110.4 0 0 1 .3 19.2Zm3.7-78.9V238h-3.5v-2h9.2v2h-3.4v9.6h-2.4Zm7.2 0v-11.5h3.5l2 7.9 2.2-8h3.5v11.6h-2.2v-9l-2.3 9h-2.2l-2.3-9v9h-2.2Z"/>
  </g>
  <path fill="url(#a)" fill-rule="nonzero" d="M328.6 641.9c-2.4-.8-4.6-1.9-7-2.8l-7-3-7.2-3.5-3.6-1.8-3.6-2a11375.7 11375.7 0 0 0-10.7-6.6 1196.4 1196.4 0 0 1-7.1-5l-3.5-2.6-6.9-5.8c-9-8-17.7-17-25.3-27.2a227.6 227.6 0 0 1-20.7-33.2 380 380 0 0 1-27.5-77c-3.5-13.4-6.6-27-9.7-40.6-1.6-6.8-3.1-13.6-4.8-20.3l-2-7.9c-.8-3.5-1.7-7-2.7-10.4l-3.1-10.6-3.6-11-9.4-29 24.6 8c8.3 2.7 16.4 5.5 24.2 7.8 4 1 7.8 2.2 11.7 3.1l8.7 2.2 11.3 2.8c15.1 3.6 30.3 7 45.2 11 15 3.8 29.6 8 43.6 13 7 2.5 14 5.2 20.6 8.1l5.6 2.5 8.3 3.9a383 383 0 0 1 8 3.9l4 2 2 1c.6.3 1.4.5 1.8 1-1.7 7.3-3.6 14.7-5 21.5l-1.4 7.2a203.4 203.4 0 0 0-.8 68 246.7 246.7 0 0 0 20.2 65c8 17.5 15.7 30.9 21 39.9l3.7 6 2.7 4.2 2.2 3.5-2.8-3-3.5-3.7-4.7-5.2a288.7 288.7 0 0 1-44.4-65.4c-5.2-11-10.2-23.2-14.2-36.9a196 196 0 0 1-7.2-76.2l.3-3.2v-4.5c-.2-.2-.7-.2-1-.3l-1.2-.3-1-.2h-.3l-.3-.2-1.1-.4-2.3-.8c-6.2-2.1-12.6-4.1-19.2-6a613 613 0 0 0-41.6-9.8c-14.6-3-29.7-5.8-45.4-9l-11.8-2.6-3-.7c.1 0 0 0 0 0v.4l.6 2.5a916 916 0 0 1 4.6 21c2.8 14 5.5 27.4 8.3 40.4 5.6 26 12.2 50 21.2 71.7a186.7 186.7 0 0 0 34.8 55.2c14 14.8 30 26.1 46.2 34.4a263 263 0 0 0 45.9 18.4 352.4 352.4 0 0 0 50.7 11.6c4 .6 7.5 1 10.2 1.5l8.5 1-8.6.6-10.3.4h-14.2c-10.7-.2-23.8-1-39-3.2s-32.4-5.9-51-12.7Zm58.8-196.3a185.5 185.5 0 0 1 6-34.5 385.7 385.7 0 0 1 25.3-68 447.4 447.4 0 0 1 18.1-33.8c1.6-2.8 3.4-5.6 5.2-8.3l5.2-8.3a1469.9 1469.9 0 0 0 16.1-25.4l4-6.5 5.7-10c3.7-6.6 7.3-13.8 10.9-20.8l10.6-20.6 11.6 23.1c3.9 7.8 7.6 15.2 11.5 22.2l3 5.2 2.8 4.8 3 5 5.9 10c8 13.4 16 26.5 23.6 39.5a504 504 0 0 1 20.4 38.8 316 316 0 0 1 8.2 19.2l2 4.9a7830.3 7830.3 0 0 1 5.3 14.9l1.2 3.6.6 1.8.4.9c0 .3.2.6.1.8l-12.2 7.3c-2 1.3-3.9 2.4-5.7 3.7l-3.6 2.2a222.4 222.4 0 0 0-34 27.4 215.8 215.8 0 0 0-28.8 36.4 270.8 270.8 0 0 0-18.2 33.4l-1.2 2.5.7-2.7c.4-1.7 1-4.3 2-7.7 2-6.7 5-16.7 10.3-29a203 203 0 0 1 44.8-65.2c3.9-3.8 8-7.6 12.5-11.2l3.2-2.6 1.1-1.1 2.2-2c.1 0 0 0 0-.2v-.2l-.3-.4-.5-.8a33 33 0 0 0-1.7-2.9l-2-4c-3-5.6-6-11.3-9.4-17a622.5 622.5 0 0 0-22.3-35.3c-8.1-12.1-16.9-24.6-25.7-37.8l-6.6-10-3.3-5.2-.2-.3-.2-.1c-.2-.2-.4-.1-.4 0v.4l-.1.2-.4.7-1.5 2.5a612.8 612.8 0 0 1-16.9 26.4 7969 7969 0 0 0-5 7.7l-5 7.7a538.5 538.5 0 0 0-17.7 31 437.5 437.5 0 0 0-27 61.4 196.4 196.4 0 0 0-7.4 29.3 167.1 167.1 0 0 0-2 21.4l-.1 7 .3 6.7.2 3.4c0 1.1.1 2.3.3 3.4l1 6.6c0 1 .2 2.2.4 3.2l.6 3.2 1.3 6.4c.4 2.1 1 4.1 1.5 6.2l1.6 6 2 5.9c5 15.4 11.2 29 17.3 40.7a359 359 0 0 0 24.3 39.7l5.3 7.5 4.5 6.1-5.6-5.1-6.7-6.4a302.9 302.9 0 0 1-31-36 241 241 0 0 1-24-40.2l-3-6-2.5-6.4-2.5-6.5-2.2-6.9-1.1-3.5-1-3.6-1.8-7.3a3707.3 3707.3 0 0 1-1.4-7.6c-.4-2.7-1-5.2-1.2-7.9l-.7-8a177.4 177.4 0 0 1 0-25Zm310.3-69c13.3-3.4 26.8-6.4 40.2-9.5 6.7-1.5 13.4-3 20-4.7l8.5-2.1 10.3-2.8c3.5-1 7-2 10.5-3.2l10.9-3.5 27.4-9-7.8 24.1c-2.7 8-5.4 16-7.6 23.7l-3.2 11.4-2.2 9-2.7 11c-3.6 14.8-7 29.6-10.7 44.2a527.3 527.3 0 0 1-12.6 42.7A344 344 0 0 1 771 528l-2.5 5.8-3.7 8.1a436 436 0 0 1-3.8 8c-1.2 2.6-2.4 5.3-3.7 7.7-7.4-1.8-14.8-3.7-21.7-5.1a10364.7 10364.7 0 0 1-12.8-2.5 196 196 0 0 0-62.4-.4 246 246 0 0 0-65.3 19.5c-17.6 7.9-31 15.4-40.1 20.8l-6 3.5-4.3 2.7-3.5 2.2 3-2.8 3.7-3.5 5.3-4.6a293 293 0 0 1 65.9-43.7 251 251 0 0 1 37-14 202.2 202.2 0 0 1 79.4-6.1h1l.5.1h2.7c.2-.2.3-.8.4-1l.2-1.2.2-1v-.3l.4-1 .8-2.3c2-6.2 4-12.4 5.7-19 3.5-12.9 6.6-26.5 9.5-40.7 3-14.3 5.7-29 8.9-44.4l2.5-11.6.6-2.4-.1-.1h-.7l-1.3.4-20.9 4.6c-13.7 2.8-27 5.4-39.8 8.2a421.4 421.4 0 0 0-71.2 20.6 193.8 193.8 0 0 0-55.4 33.6 173.4 173.4 0 0 0-34.9 45 262.6 262.6 0 0 0-19 45 346.2 346.2 0 0 0-12 50l-1.6 10.1-1.2 8.4-.5-8.5-.2-10.2v-6.6c0-2.3 0-4.8.2-7.4a300 300 0 0 1 3.7-38.5c2.4-15 6.3-32 13.4-50.3a182.6 182.6 0 0 1 33.8-55.4 204 204 0 0 1 60.4-44.3c23.5-11.8 49.5-20 76.1-26.9Zm-348 305a231.9 231.9 0 0 1-83.5-35.2 200.1 200.1 0 0 1-40.8-37.3l-2.7-3.2a2136.5 2136.5 0 0 0-5.1-6.3l-.2-.2-.3.2-.6.3-1.2.6a65.1 65.1 0 0 0-6.7 3.5c-5.7 2.9-11.4 6-17 9.3a570 570 0 0 0-35.2 22.4c-12 8.2-24.4 17-37.6 26a9462 9462 0 0 1-5 3.5l-2.5 1.7-1.2.8-.3.3a1275 1275 0 0 0-6.2 4.9c2.9 1 5.2 2 7.1 2.8l.7.3 3.6 2.1 7.6 4.5 15.2 9.2a726.5 726.5 0 0 0 61.6 34.9c10.6 5 21.5 9.6 32.5 13.3l8.3 2.6 8.4 2.3 8.4 1.8 4.2.7 4.3.7a150.6 150.6 0 0 0 68.2-6 247 247 0 0 0 54.6-26.3c17.5-11 34.4-23.3 51.3-35.8l12.7-9.4 12.9-9.3c4.2-3.1 8.6-6.1 12.9-9.1l13-8.8c17.3-11.5 35-22.1 52.8-31.5 17.9-9.3 36-17.4 54.2-23.8a309.3 309.3 0 0 1 54.5-14 267.7 267.7 0 0 1 100.5 3.1c30 6.8 55.3 18.5 75.8 30.5 10.3 6 19.5 12 27.8 17.8l4.4 3.1a385.2 385.2 0 1 0-741.4-4.2c7.3-4.3 14.6-8.6 21.8-12.6 13-7.4 26-14.3 38.7-20.2a343 343 0 0 1 19.1-8.2c4.7-2 9.1-3.5 13.5-5.1a335 335 0 0 1 6.5-2.3l3.2-1 1.6-.6.8-.3h.7l7.8 13 3.8 6 3.1 4.6a211.6 211.6 0 0 0 34 38.4c15.6 13.7 31.3 23 44.5 30a298 298 0 0 0 31.3 13.8l8.4 3 3 1-3-.5-8.9-1.8Z" transform="matrix(.225 0 0 .225 75.4 -30.6)"/>
  <path fill="#00b4e2" fill-rule="nonzero" d="M283.1 142a195 195 0 0 0-9-7.5 117 117 0 0 0-11.4-6l-2.7-1.2-1.4-.5-1.4-.5a55.2 55.2 0 0 0-26.8-2.2l-1.8.3-1.8.3-1.9.5-1.8.4-1.9.6-1.8.5-3.7 1.3a99 99 0 0 0-7.2 3.1l-3.5 1.7-3.3 1.8c-4.4 2.4-8.6 5-12.5 7.5l-11.3 7.3c-3.6 2.2-7 4.2-10.4 5.7a56.8 56.8 0 0 1-9.2 3.4l-4 .8-.8.1-.5.1h-.4l-1.6.2h-4.7l-1.5-.1 1.6-.1 1.9-.2 1.2-.2.7-.1.7-.2 1.5-.3h.4l.4-.2.9-.2 3.7-1.3c2.6-1 5.4-2.3 8.5-4.1 3-1.8 6.2-4 9.5-6.4l10.8-8c3.8-2.8 8-5.6 12.5-8.2l3.5-2c1.1-.6 2.3-1.3 3.5-1.8a69.2 69.2 0 0 1 39.3-7.3c2.5.3 4.8.3 7 .8 1.8.4 4.3.7 8.3 1.9a64.3 64.3 0 0 1 17.6 8.6l2.5 1.6-2.3-2-6.4-5.5-4-3.2a165 165 0 0 0-9.2-5.1 65.5 65.5 0 0 0-16.3-5.4 55.9 55.9 0 0 0-31.3 3.5 92 92 0 0 0-11 5.1c-3.7 2-7.4 4.3-11.1 6.8l-2.8 1.9-2.8 2-2.8 2-2.8 2a167 167 0 0 1-12.4 8.3c-4.5 2.6-9.3 5-14.8 6.6a44 44 0 0 1-20 .7l-1.1-.2-1.2-.3-2.3-.6-2.3-.8-2.2-.9a70.1 70.1 0 0 1-8.2-4c-5.1-3-9.7-6.3-14-9.4l-3.2-2.4-1.5-1.1-.8-.6-1.5-1-3-2-3-1.8-3-1.7c2 1.2 15.6 12.7 16.7 13.5 4.3 3.2 8.7 6.8 13.3 10.6 2.7 2.3 27.6 25.7 51.2 20.6 18.5-3.9 25-16.5 50.3-28.7 5.8-2.8 10.2-5 17.3-6 3-.5 4.3-.7 8-1.1 5.5-.7 10.2-.3 11.8-.3a77 77 0 0 1 16.4 3.4c3 1 5.6 2.4 8 3.8 2.5 1.5 4.5 2.9 6.1 4l5.2 3.4s-1.6-1.5-4.7-4Z"/>
  <defs>
    <linearGradient id="a" x1="0" x2="1" y1="0" y2="0" gradientTransform="matrix(227.497 368.152 -292.233 180.584 262.4 229)" gradientUnits="userSpaceOnUse">
      <stop offset="0" stop-color="#c53030"/>
      <stop offset=".4" stop-color="#d14b32"/>
      <stop offset="1" stop-color="#ed8936"/>
    </linearGradient>
  </defs>
</svg>
